<svg xmlns="http://www.w3.org/2000/svg" viewBox="0 0 32 32" width="32" height="32">
  <title>AVE favicon</title>
  <!-- no background rect — transparent -->
  <!-- stingray body -->
  <path d="M16 3 C21.5 2.5 27.5 7 29 13.5 C23.5 11.5 19 13.5 16 18 C13 13.5 8.5 11.5 3 13.5 C4.5 7 10.5 2.5 16 3 Z"
        fill="#d4a017"/>
  <!-- tail center -->
  <path d="M16 18 L16 26" stroke="#9ec3b2" stroke-width="1.8" stroke-linecap="round" fill="none"/>
  <!-- wing tips -->
  <path d="M16 18 C13.5 21.5 11 22.5 9.5 23" stroke="#9ec3b2" stroke-width="1.4" stroke-linecap="round" fill="none"/>
  <path d="M16 18 C18.5 21.5 21 22.5 22.5 23" stroke="#9ec3b2" stroke-width="1.4" stroke-linecap="round" fill="none"/>
  <!-- eyes -->
  <circle cx="12.5" cy="11.5" r="1.6" fill="#0a3024"/>
  <circle cx="19.5" cy="11.5" r="1.6" fill="#0a3024"/>
  <!-- eye glints -->
  <circle cx="13.2" cy="10.9" r="0.6" fill="#ffffff" opacity="0.6"/>
  <circle cx="20.2" cy="10.9" r="0.6" fill="#ffffff" opacity="0.6"/>
</svg>
